# xmcd
#
# Track frame offsets: 
#        150
#        16507
#        32976
#        48799
#        68816
#        90656
#        106400
#        132627
#        148810
#        168206
#
# Disc length: 2654 seconds
#
# Revision: 0
# Processed by: cddbd v1.5.2PL0 Copyright (c) Steve Scherf et al.
# Submitted via: ExactAudioCopyFreeDBPlugin 1.0
#
DISCID=810a5c0a
DTITLE=Rascal Flatts - Rascal Flatts - The best of (live)
DYEAR=2011
DGENRE=New Country
TTITLE0=Bob That Head
TTITLE1=Bless the Broken Road
TTITLE2=Still Feels Good
TTITLE3=Here's to You
TTITLE4=Medley: I'm Movin' On - Skin - Feels Like Today
TTITLE5=Stand
TTITLE6=These Days
TTITLE7=What Hurts the Most
TTITLE8=Life Is a Highway
TTITLE9=Foreplay-Long Time - Free Ride
EXTD=
EXTT0=
EXTT1=
EXTT2=
EXTT3=
EXTT4=
EXTT5=
EXTT6=
EXTT7=
EXTT8=
EXTT9=
PLAYORDER=
